/* XPM */
static const char *print_preview16_xpm[] = {
/* columns rows colors chars-per-pixel */
"16 16 130 2",
"n  c #D9D9D8",
"/  c #B9CADC",
"!  c #E8E8E8",
"N  c #85A5C9",
"5  c #F7F7F7",
"=  c #6E706D",
"-. c #B4B4B3",
"q  c #729FCD",
"4. c #6C6D6A",
"9  c #729FCE",
"#. c #858784",
".. c #999A99",
"O. c #D5DCE4",
"q. c #CBCBCA",
"j  c #DADAD9",
"7  c #DADADA",
":  c #6F716C",
"r  c #6F716D",
"%. c #6F716E",
"@  c #F8F8F8",
"a  c #A9C2DC",
"Z  c #95A6B9",
";  c #C4C4C4",
"~  c #777976",
"<. c #6D6E6B",
"P  c #D1D9E1",
"{  c #9F9F9F",
"1  c #9DAEC3",
",  c #98AAC2",
"e  c #DBDBDB",
"$  c #70726F",
"X  c #F9F9F9",
">. c #666764",
"o. c #96B3D2",
"<  c #6C96C4",
"o  c #A2A3A1",
"*. c #C5C5C5",
"p. c #D4D4D4",
"h  c #696B66",
"=. c #F2F2F2",
"O  c #6E6F6B",
"]  c #6E6F6C",
"J  c #7D7E7C",
"l  c #ADC7E2",
".  c #AAABA9",
"g  c #B9BAB8",
"K  c #80827F",
"L  c #8F918E",
"H  c #858684",
"1. c #B7B7B5",
"3. c #C6C6C6",
"   c None",
"0  c #C4D5E9",
"4  c #F3F3F3",
" . c #6F706C",
"C  c #86A2C1",
";. c #7E7F7C",
"U  c #9FBCDC",
"F  c #8D8E8B",
"k  c #6690BF",
":. c #8D8E8D",
"z  c #D8E2EF",
"^  c #ABACAB",
"[  c #CECECE",
"|  c #DDDDDC",
"S  c #89A9CA",
"3  c #DDDDDD",
"e. c #ECECEC",
"R  c #727470",
")  c #739FCE",
"u. c #A9A9A9",
"@. c #B8B8B7",
"t  c #C7C7C7",
"w. c #D6D6D6",
"W  c #F4F4F4",
"2. c #898B88",
"8  c #8CA7C5",
"#  c #9D9E9C",
"%  c #CACBC9",
"2  c #DEDEDE",
"c  c #85A6CC",
"m  c #82847F",
"w  c #8FA8C5",
"f  c #A5A6A3",
"9. c #A5A6A4",
"(  c #6087B4",
"T  c #D2D9E0",
"E  c #B4B5B3",
"G  c #AAAAAA",
"Y  c #B2C7DE",
"6. c #B9B9B9",
"D  c #C8C8C7",
"r. c #D7D7D7",
"}  c #CDCCCB",
"Q  c #E6E6E6",
"u  c #9EAEC3",
"6  c #6C6E6A",
"&. c #858583",
"+  c #ADAEAC",
"x  c #DFE8F3",
"v  c #779ECA",
"p  c #E4ECF5",
"i. c #B2B2B1",
">  c #DADBDB",
"&  c #DADBDC",
"b  c #81A3CA",
"$. c #747672",
"+. c #6A6B68",
"I  c #A4BFDC",
"7. c #A6A7A5",
"V  c #8BA2BD",
"*  c #C9C9C8",
"t. c #D8D8D8",
"d  c #AEBBCA",
"8. c #8B8D89",
",. c #6D6C6B",
"i  c #D6E1EF",
"X. c #DBE2E9",
"-  c #B3B3B2",
"M  c #C2C2C2",
"y. c #D1D1D1",
"B  c #7899BF",
"A  c #7392B5",
"s  c #719ECE",
"`  c #939592",
"'  c #898A88",
"_  c #C5CCD2",
"y  c #A7A8A6",
"0. c #8E8E8E",
"5. c #BBBBBB",
/* pixels */
"                                ",
"      . . . . . . . . . . .     ",
"      . X o O + X X X X @ .     ",
"      # $ % & * = - ; ; @ .     ",
"      : > , < 1 2 : 3 4 5 .     ",
"    6 7 8 9 0 q w e r t @ .     ",
"    y u 9 i p a s d f g 5 .     ",
"  h j k l z x c v b n h 5 .     ",
"  m M N B V C Z A S D F G H J J ",
"  K L P 9 I U Y 9 T R E W Q ! J ",
"  J ~ ^ / 9 ( ) _ ` ' ] [ { } J ",
"  J |  ...X.o.O.+.@.#.$.%.&.*.J ",
"  J =.-.6 ;.:.>.,.<.1.2.3.4.*.J ",
"  J =.5.6.7.8.9.@.0.4.q.w.4.t J ",
"  J e.r.t.w.[ y.y.y.u.4.4.i.p.J ",
"  J J J J J J J J J J J J J J J "
};
